<?xml version="1.0" encoding="utf-8"?>
<!-- Generator: Adobe Illustrator 25.2.1, SVG Export Plug-In . SVG Version: 6.00 Build 0)  -->
<svg version="1.1" xmlns="http://www.w3.org/2000/svg" xmlns:xlink="http://www.w3.org/1999/xlink" x="0px" y="0px"
	 viewBox="0 0 313.3 40" style="enable-background:new 0 0 313.3 40;" xml:space="preserve">
<style type="text/css">
	.st0{display:none;}
	.st1{display:inline;}
	.st2{fill:#333333;stroke:#333333;stroke-miterlimit:10;}
	.st3{fill:none;stroke:#FFFFFF;stroke-miterlimit:10;}
	.st4{fill:#FFFFFF;}
	.st5{fill:#FCFCFC;}
	.st6{fill:none;stroke:#000000;stroke-miterlimit:10;}
	.st7{fill:#FFFFFF;stroke:#FFFFFF;stroke-miterlimit:10;}
	.st8{fill:#333333;}
	.st9{display:inline;fill:#FFFFFF;}
	.st10{fill:#231F20;}
	.st11{fill:#C31818;}
	.st12{fill:#143471;}
	.st13{fill:#DBDCDD;}
</style>
<g id="fondo">
</g>
<g id="Capa_9">
</g>
<g id="Capa_1" class="st0">
	<g class="st1">
		<g>
			<path class="st2" d="M149.2-181.1c0,0,196.1,32.8,212.5,252.9c0,0,9.5,137.4-131.4,212.6c0,0-14.3-30.6,2.8-70.7
				c-5.4,9.1-61,99.3-63.5,103.3c-2.5,4-66.5,13.7-122.7-5.6c-9.6-3.7-147.1-60.8-153.6-242.8c-1.9-140.9,115-229.1,127-227.4
				c0,0,9.7,16.6,3.6,95.2c8.3-13.6,71.7-117.5,71.7-117.5S132.8-184.6,149.2-181.1z"/>
			<path class="st2" d="M148.3-181.5c0,0,175,14.8,212.3,253.3c0,0,9.5,137.4-131.4,212.6c0,0-14.3-30.6,2.8-70.7
				c-5.4,9.1-61,99.3-63.5,103.3c-2.5,4-66.5,13.7-122.7-5.6c-9.6-3.7-147.1-60.8-153.6-242.8c-1.9-140.9,115-229.1,127-227.4
				c0,0,9.7,16.6,3.6,95.2c8.3-13.6,71.7-117.5,71.7-117.5S116.8-185.3,148.3-181.5z"/>
			<path class="st3" d="M143.1-181.5c0,0,175,14.8,212.3,253.3c0,0,9.5,137.4-131.4,212.6c0,0-14.3-30.6,2.8-70.7
				c-5.4,9.1-61,99.3-63.5,103.3c-2.5,4-66.5,13.7-122.7-5.6c-9.6-3.7-147.1-60.8-153.6-242.8c-1.9-140.9,115-229.1,127-227.4
				c0,0,9.7,16.6,3.6,95.2C26-77.3,89.4-181.2,89.4-181.2S111.6-185.3,143.1-181.5z"/>
			<path class="st4" d="M250.1,194.1h58.1v8.2c0,0-37.4,51.7-82.1,71.4c-0.4,0.1-3.2-21.8-1.3-31.7
				C227.8,238.4,250.1,194.1,250.1,194.1z"/>
			<path class="st5" d="M6-126.3l6.9-5.7l8.7,0.1l2.6,6.1C24.2-125.7,12.6-125.1,6-126.3z"/>
			<path class="st5" d="M109.2-158.7v12.4c0,0-17.9-2.3-27.1,5.3c-0.1,4,0.7,12.2,0.7,12.2s-9-0.9-9.9-1.6c-0.1-0.4-1.8-6-1.8-6
				l9.6-9l-3.5-0.6c0,0,8.7-10.1,10.2-10.3C89-156.5,99.2-159.8,109.2-158.7z"/>
			<path class="st5" d="M109.2-132.8v10.3l-11.5,5.7c0,0,11.4,4.3,12.1,4.7c0.6,0.5,0.2,17.2,0.2,17.2h-5.7l1.6-12.7l-17.6-4.9
				l-8.9,6.1l0.2,18.1l-13.7,2.8L60-73.2l-5.9,0.4l1.2-14.2c0,0-15.9-1.9-15.6-3.3c0.6-0.8,11.6-30.3,26.7-28.1
				c0.6,0.1,1.6,2.6,1.4,7.1c3.4-0.1,7.9,0,7.8-4.3c0.9-0.1,6.7-0.8,6.7-0.8l-3.8-3.4l0.2-3.6l7,0.2l7.7-7.5
				C93.5-130.8,102.2-133.7,109.2-132.8z"/>
			<path class="st6" d="M109.4-67.4l0,0.3l0.3,10.3c0,0-4-2.2-6.1,3.5c-1.5,0-6.1,0-6.1,0l-1.5,3.8l-3.8-0.3l-2.7-3.3l-3.1,3.6
				l-8.7-0.4c0,0,9.6-10.9,11.9-11.6c2.2-0.7,5.6,3.6,5.6,3.6l5.7-5.7l-9.6-2.4l0.2-4.4c0,0,4.4-4.5,10.7-0.4
				c0.4,1.9,2.1,3.7,2.1,3.7S108.5-66.9,109.4-67.4z"/>
			<path class="st6" d="M109.4-67.4l0,0.3l0.3,10.3c0,0-4-2.2-6.1,3.5c-1.5,0-6.1,0-6.1,0l-1.5,3.8l-3.8-0.3l-2.7-3.3l-3.1,3.6
				l-8.7-0.4c0,0,9.6-10.9,11.9-11.6c2.2-0.7,5.6,3.6,5.6,3.6l5.7-5.7l-9.6-2.4l0.2-4.4c0,0,4.4-4.5,10.7-0.4
				c0.4,1.9,2.1,3.7,2.1,3.7S108.5-66.9,109.4-67.4z"/>
			<path class="st7" d="M109.4-67.4l0,0.3l0.3,10.3c0,0-4-2.2-6.1,3.5c-1.5,0-6.1,0-6.1,0l-1.5,3.8l-3.8-0.3l-2.7-3.3l-3.1,3.6
				l-8.7-0.4c0,0,9.6-10.9,11.9-11.6c2.2-0.7,5.6,3.6,5.6,3.6l5.7-5.7l-9.6-2.4l0.2-4.4c0,0,4.4-4.5,10.7-0.4
				c0.4,1.9,2.1,3.7,2.1,3.7S108.5-66.9,109.4-67.4z"/>
			<path class="st5" d="M109.5-51.3c0,0.9-0.7,1.6-1.6,1.6c-0.9,0-1.6-0.7-1.6-1.6c0-0.9,0.7-1.6,1.6-1.6
				C108.8-53,109.5-52.2,109.5-51.3z"/>
			<path class="st4" d="M109.8-26.4l0,85.5H3.9l0.7-7.3l-15.1-2.8l6.5-11.3l-2.3-7.6l-3.3,3.1c0,0,2.4-27.7,5.6-30.2
				c0.4-0.2,9.1-2.3,16-0.7l0,9.5l11.4,5.4L23,1.7c0,0,13.5-16.9,23.5-18.3c-0.1-2.4-0.2-9,3.8-10.2
				C54.3-27.8,109.8-26.4,109.8-26.4z"/>
			<path class="st4" d="M-28,8.7l0,0.5l-4.8,34.9h-5.6L-43.1,33C-43.1,33-34.8,7.8-28,8.7z"/>
			<path class="st4" d="M-33.8,58.2l-73.3-0.4c0,0,4.8-52.4,9.2-52.2c0.2,1.9,0,5.9,0,5.9l10.4,17l8.4,1.1l0.9-7.2L-88.1,9
				l-1.2-14.9h5.3L-82,8.7l13.9,20.6l-3.5,6.5l9.2,14l22.9,5.9c0,0-0.8-3.4,0.6-3.7c1.3-0.3,5.2,0.4,5.2,0.4V58.2z"/>
			<path class="st4" d="M-106.8,81.1h72.4c0,0,4.1,59,16.9,90c-5.9,0-66.7,0-66.7,0S-109.1,128.1-106.8,81.1z"/>
			<path class="st4" d="M-11.5,80.8c0,0,26.9,0.1,32.3,2.2c0.4,3.4,2.1,15.8,2.1,15.8l-13.3,8.8c0,0,0.5,17.8-3.1,22.6
				c1.8,2.7,20,25.7,20,25.7l0.5,7.8c0,0,14.9,3.3,14.2,7.3H7C7,171.1-12.7,117.7-11.5,80.8z"/>
			<path class="st4" d="M-71.6,194.1h63.1c0,0,35.7,71.4,55.3,92.3C45.8,286.7-12.2,275.1-71.6,194.1z"/>
			<path class="st4" d="M17.3,194.1h34.9V221c0,0,3.9,0,4.5,1.7c0.5,1.7-3.7,20-3.7,20l9.1,12l-0.7,12.9
				C61.4,267.6,14.1,200.1,17.3,194.1z"/>
			<path class="st4" d="M110.3,247.3l-0.1,52.2c0,0-15.1,0.1-16.9-5c1.6-5.4,4.8-12.4,3.6-15.8c-1.7-0.9-9.1-1.5-9.1-1.5l-3-3.8
				c0,0,9.5-7.2,8-9.8c-0.1-0.6-5.1-3.7-8-3.3c0,0-0.2-3.5,2.7-3.9C88.4,256.2,96.3,257.8,110.3,247.3z"/>
			<path class="st4" d="M132.9,194.1l0.3,104.9l20.3-1.4c0,0,52.5-52.5,72.7-103.5H132.9z"/>
			<path class="st4" d="M294.6,93.2l-3.4,23.1c0,0,18.6,31.6,19.1,32.9c-10,13.2-9.6,21.9-9.6,21.9h-41.9c10-16,16.1-79.9,16.1-79.9
				S281.6,94.3,294.6,93.2z"/>
			<path class="st4" d="M132.2,82.1v36H157l7.1,10.5c0,0,7.8,2.7,10.2,3.1c-0.2,0.5-1.4,9.3-1.4,9.3l-11.6,15.3l-2.4,14.8h76.7
				c0,0,18.1-52.2,17.1-78.1c-4.5,0.2-16.1-0.6-16.1-0.6l-0.7,1.9c0,0-12.1,1.1-12-0.3c-0.4-0.9-10.7-12-10.7-12H132.2z"/>
			<polygon class="st4" points="110.4,81.1 110.3,88.1 93.5,88.1 89.4,81.1 			"/>
			<path class="st4" d="M132.2-26.9h99.3c0,0,7,6,7,10.5c-2.8,2.1-13.2,6.6-13.2,6.6V5.8l-27.9,19.5c0,0,1.2,7.9,2.7,8.8
				c1.6,0.9,5.9,0,5.9,0s0.7,8.9-5.3,10.9c-1.1,2.7-0.7,14.1-0.7,14.1h-67.7V-26.9z"/>
			<path class="st5" d="M133.2-158.7v31c0,0,6.6,0.6,7.7,2.5c-0.7,1.5-3.5,8.3-3.5,8.3h-5.2v53.4l3.5,1.4l0.2,6.6
				c0,0-4.1,0.6-2.2,5.9c2.8,0,92.6,0,92.6,0s-38.8-76.6-71.1-106.4C154.6-156.6,145.2-159.1,133.2-158.7z"/>
			<path class="st4" d="M193.5-147.8c0,0,40.5,56,41,63.7c4.4-4.3,11.3-3.6,12.5-3.2c0,0,3.6,1,1.3,6.6l-8.6,7l11.9,23.8h7.9
				l0.3-3.9l-4.6-0.8l1.1-11.3l14-1.9l8.9-13.6l13.3-0.4C292.4-81.8,245.2-134.6,193.5-147.8z"/>
			<path class="st8" d="M256-100.4c0,0,2.3,21.5,15.1,22.6c0,0-0.2,4.2-4.1,7.4c-1.9,0.3-16.3,0.9-17.5,0.5c0,0-0.1-8.2,0.4-9.1
				c0.5-0.9,6-0.8,6-0.8l0.2-3.7l-11.2-8.5C244.9-91.9,245.2-100.2,256-100.4z"/>
			<path class="st4" d="M292.5-49.7c0,0.8-0.6,1.4-1.4,1.4c-0.8,0-1.4-0.6-1.4-1.4c0-0.8,0.6-1.4,1.4-1.4
				C291.9-51,292.5-50.4,292.5-49.7z"/>
			<path class="st4" d="M300.8-54.9h10.3c0,0,4.7,4.3,4.9,5.1c0,0-6.4,0.4-13.5-0.4C302.5-50.2,299.3-53.9,300.8-54.9z"/>
			<path class="st4" d="M262.5-19c0,0-3.3-5.3-0.5-8.1c0,0,40.6-0.1,40.6-0.1s1.7,5,6.3,4.9c2.1,0,7.8-1.7,8.8-3.7h12.1L336.9-8
				l-10.3,0.2l-0.4,8.9c0,0-24.6-10-31.3-9.5c0-1-0.6-14.8-0.6-14.8S266.1-24,262.5-19z"/>
		</g>
	</g>
</g>
<g id="continentes" class="st0">
	<path class="st9" d="M120.2-182.5c-139.1,0-251.9,112.8-251.9,251.9c0,139.1,112.8,251.9,251.9,251.9S372.1,208.6,372.1,69.4
		C372.1-69.7,259.3-182.5,120.2-182.5z M289.7,239c-45.3,45.3-105.5,70.2-169.5,70.2c-64,0-124.3-24.9-169.5-70.2
		c-45.3-45.3-70.2-105.5-70.2-169.5c0-64,24.9-124.3,70.2-169.5c1.1-1.1,2.2-2.1,3.3-3.1c-0.8,2.6-1.8,5.2-3.3,7.4
		c-3.6,5.3-9.5,7.4-13.2,12.4C-66-78.8-68.7-72-70-66.9c-1.4,5.5-0.5,12.2-2.5,17.7c-2.5,7-6.9,11.1-6.1,19.2
		c9.7,2.9,5.5-14.4,13.7-15.3c2.6,6.5,0.9,18.5,0.2,25.5c-1,9.7-2.9,12.1,2.9,20.4c4.6,6.6,6.1,11,15,12c8.1,1,11.5,4.6,14.9,12.5
		c6.3,1.3,10.1,2.4,10.9,9.3c2.7,1.5,7.8,6.4,10.7,7.2c4.2,1.1,11.1-4.8,15-0.3c6.5,7.6-8.3,27.5-11,34.4c-3.9,10.1-4.5,24.8,5.1,32
		c4.9,3.7,10.1,5.5,11.7,12.2c1.5,6.2,0.3,11.4,3.1,17.3c4.3,9.2,14.1,12.2,21.1,19.2c9.2,9.2,8.6,21.1,8.6,34.2
		c0,13.6,5.2,24,7,36.5c1.9,12.9,5.6,24.8,8.4,37.3c2,9.4,10.1,23.5,21.8,21.6c0.8-4.4-3.8-7.9-4.4-12.3c-0.5-4,0.6-8.2-0.2-12.4
		c-1.6-8.5-1.5-13.4,4.1-20.8c2-2.6,4.7-4.7,6.8-7.3c4-5.1,0.9-3.6,0.8-9.1c-0.2-6.9,1.9-3.5,6.1-5.7c2.2-1.1,4.6-4.5,6.2-6.2
		c3.6-3.8,9.2-8.3,12.1-12.8c3.2-5,2.8-12.1,6-17.3c3.7-6,9-6,14.2-9.9c6.7-5.1,4-10.4,5.2-17.3c2.1-11.6,7.3-24.4,14.6-33.6
		c9.2-11.6,13.1-21.5,2-32.6c-5.5-5.5-8.4-4-15.7-6c-5.6-1.5-10.6-5.6-16.3-6.2c-3.4-0.4-5.4,0.8-8.5,0c-2.9-0.8-2.5-2.5-5.6-2.5
		c-4.6,0.1-10.9,9.6-14.8,3.5c-2.1-3.4,4.4-12.7,4.1-17.3c-0.4-5.6-2.4-14.7-7.9-17.7c-2.1-1.1-6.7-1.3-9.2-2.3
		c-3-1.1-5.9-3-8.6-4.7c-3.5-2.2-10.2-6.1-11.7-10.1c-4.3-0.2-7.2-2.5-11.5-2.5c-3.9,0.1-6.5,1.9-10.7,1.4
		c-3.7-0.4-7.7-3.3-11.6-2.8c-2.7,0.4-6.6,3.8-8.9,5.1c-6.1,3.4-12.5,5.9-19.2,7.2c-10.4,1.9-12.3-2-11.6-11.6l-1.6-3.1
		C-12,8.4-18.9,7.7-26.6,5c-1.1-7.6,8.3-13.1,4.4-21.5c-7.9-0.4-16.6,22-23.4,12.3c-4.4-6.4,2.3-24.3,6.2-29.7
		c3.9-5.5,18.3-15.3,25-16.2c5.2-0.7,9.8,1.7,11.9,6.3c2.2,5-0.7,9.7,0,15.4c6.7-1.6,5-10.1,4.7-14.7C1.7-50.6,5.7-50,9.6-55.6
		c3.5-5,4.1-10.7,8.5-15.6c3.4-3.8,7.5-7.8,11.3-11.2c4.3-4,9.2-3.6,13.6-6.5c6.7-4.5-2.2-12.7,7.7-12.1c3.5,0.2,1.8,2.4,6.4,1.4
		c2-0.5,5.6-2.3,7.7-3.1c9.5-3.8,2.8-4.9-1.6-9.9c-5.5-6.4,2.3-5.3,8-6.2c4.2-0.7,3.3-2.1,7,0.4c3.2,2.2,1.3,5.1,6,4.9
		c9-0.3,2.8-9.3,0.8-12.3c-3.4-5.1-4.3-8.7-11.5-8.9c0.7-2.3,0.8-5.3-0.2-7.5c-6.1,0.8-7.1-3.6-11.7-5.4c-7.7-2.9-6.5,3.4-9.7,7.7
		c-3.3,4.5-9.5,3.7-11.9,9.1c-2.5,5.7-0.1,10-9.2,8.4c1.2-3.4,0.8-7.8,0.6-11.4c-2.6-0.3-5.1-1-7.5-1.8c0-9.1,10.1-9.9,16.9-10.7
		c7.7-1,10.2-8.8,17-10.1c6.4-1.2,11,9.1,18.9,3.1c4.5-3.4,2.4-5.4,0.8-8.7c-0.4-0.9-2.7-2.9-3.3-3.7c-0.1-0.1-0.1-0.2-0.2-0.3
		c6.1-1.2,12.3-2.1,18.5-2.8c1.2,3.4,3.7,7.5,5.1,9.9c1,1.7,2.9,2.9,3.7,4.8c0.9,2.2-1.3,4.8,1.5,6.3c4.2,2.3,16.5-12.4,19.4-14.8
		c3.7-3,6.1-4.7,5.2-7.6c19.7,0.6,39.1,3.6,57.6,8.8c1.5,1.9,3,3.8,4.5,5.9c3.3,4.5,5.3,8.6,11.2,10.7c3.4,1.2,14.3,1,9.8,8.8
		c-4.2,7.2-8.8-2.2-10.9-4.5c-2.9-3.1-11.6-6.6-11.3,0.6c0.4,10.7,24.5,9,19.4,20.8c2.9,1.7,8.6,4.5,7.7,8.8
		c-1.2,5.2-7.9,1.9-7.8,8.5c0.2,9.4,10.5,17.2,20,13.8c10.2-3.6,2.5-17.8,14.2-19.2c4.6-0.6,7.3,0.8,11.4,4
		c3.4,2.7,5.5,8.7,10.1,8.2c0.5-2.9-1.7-4.9-2.1-7.6c3.6,0.9,10.8,5.4,12.8,8.5c3.1,4.7,2.8,11.5,10.4,5.4c-1.1-0.9-1.7-3-2.3-3.8
		c9.7,0,16.5,4,20.7,12.5c9.3,18.8-13.6,3.9-14.7,13.7c-5.6-1.8-8.2-6.3-13-9c-2.3-1.3-6.6-0.6-8.4-1.9c-2.5-1.8-1.9-5.1-4-6.8
		c-8.5-6.9-27.8,4.3-35.6,8.8c-2.1,1.2-4.4,1.3-5.8,3.6c-2.5,3.9,1,4.9,0.2,8.6c-1.1,5.2-7.9,7.6-10,11.8c-4.9,10,5.1,24.4,3.7,35.6
		c-0.7,6.2-7.4,12.9-4.9,18.1c1.1,2.2,4.9,4.1,6.4,6.8c1.3,2.4,1.9,5.5,3.7,8c5.7,8,13.9,16.9,20.6,24.4c3.8,4.3,9,5.5,14.7,4.3
		c4.7-1,11.9-2.6,16.3-4.7c5.9-2.8,6.6-6.8,12.8-4.1c4.9,2.1,9.2,8.4,14.9,3.2c4.7,4.6-0.5,12.6-1.6,17.8
		c-1.3,6.6,1.3,12.3,5.3,17.9c4.9,6.7,6,7.9,5,16.9c-0.8,7-2.6,13.4-4.1,20.3c-1.4,6.6-5.7,11.7-5.4,18.7c0.2,6.5,3,11.7,2.2,18.6
		c-0.7,6.1-1.1,13.4-2.7,19.4c-1.6,6.1-6,11.6-7.8,17.9c-1.7,6-1.2,13.7,2.9,18.6c4.4,5.1,8.7,2.2,13.8-1.7
		c10.1-7.7,14.7-20.6,21.3-30.9c6.8-10.5,13.7-20.1,18.3-31.1c1-2.3,2.1-4.6,3.3-6.9C339.6,174.3,318.9,209.8,289.7,239z"/>
</g>
<g id="continentes_copia">
</g>
<g id="meridianos">
</g>
<g id="texto">
	<g>
		<path class="st10" d="M5.2,26.6c0.4,0.1,1.1,0.1,1.8,0.1c4.7,0,7.7-2.5,7.7-8c0-4.7-2.7-7.2-7.2-7.2c-1.1,0-1.9,0.1-2.3,0.2V26.6z
			 M0,8c1.9-0.3,4.4-0.5,7-0.5c4.3,0,7.1,0.8,9.3,2.4c2.4,1.8,3.9,4.6,3.9,8.6c0,4.4-1.6,7.4-3.8,9.2c-2.4,2-6,2.9-10.5,2.9
			c-2.7,0-4.6-0.2-5.8-0.3V8z"/>
		<path class="st10" d="M33.5,20.8L32.1,16c-0.4-1.4-0.8-3-1.1-4.4h-0.1c-0.3,1.4-0.7,3.1-1,4.4l-1.4,4.8H33.5z M27.8,24.6l-1.6,5.8
			h-5.3l7-22.8h6.8l7.1,22.8H36l-1.8-5.8H27.8z"/>
	</g>
	<polygon class="st10" points="44.1,7.7 49.3,7.7 49.3,26.2 58.3,26.2 58.3,30.5 44.1,30.5 	"/>
	<g>
		<path class="st10" d="M72.1,20.8L70.7,16c-0.4-1.4-0.8-3-1.1-4.4h-0.1c-0.3,1.4-0.7,3.1-1,4.4l-1.4,4.8H72.1z M66.4,24.6l-1.6,5.8
			h-5.3l7-22.8h6.8l7.1,22.8h-5.5l-1.8-5.8H66.4z"/>
		<path class="st10" d="M100.9,29.4c-1.6,0.5-4.6,1.3-7.6,1.3c-4.2,0-7.2-1-9.3-3.1c-2.1-2-3.2-4.9-3.2-8.3c0-7.6,5.5-11.9,13-11.9
			c2.9,0,5.2,0.6,6.3,1.1l-1.1,4.1c-1.3-0.5-2.8-1-5.3-1c-4.3,0-7.5,2.4-7.5,7.4c0,4.7,2.9,7.5,7.2,7.5c1.2,0,2.1-0.1,2.5-0.3v-4.8
			h-3.5v-4h8.5V29.4z"/>
	</g>
	<rect x="104.4" y="7.7" class="st10" width="5.2" height="22.8"/>
	<g>
		<path class="st10" d="M181.8,29.4c-1.6,0.5-4.6,1.3-7.6,1.3c-4.2,0-7.2-1-9.3-3.1c-2.1-2-3.2-4.9-3.2-8.3c0-7.6,5.5-11.9,13-11.9
			c2.9,0,5.2,0.6,6.3,1.1l-1.1,4.1c-1.3-0.5-2.8-1-5.3-1c-4.3,0-7.5,2.4-7.5,7.4c0,4.7,2.9,7.5,7.2,7.5c1.2,0,2.1-0.1,2.5-0.3v-4.8
			h-3.5v-4h8.5V29.4z"/>
		<path class="st10" d="M190.5,17.8h2c2.6,0,4.1-1.3,4.1-3.3c0-2.1-1.4-3.1-3.8-3.2c-1.2,0-2,0.1-2.3,0.2V17.8z M185.4,8
			c1.7-0.3,4.1-0.5,6.9-0.5c3.4,0,5.7,0.5,7.4,1.8c1.4,1.1,2.1,2.7,2.1,4.8c0,2.9-2.1,4.9-4,5.6v0.1c1.6,0.6,2.5,2.2,3,4.3
			c0.7,2.6,1.4,5.5,1.9,6.4h-5.3c-0.4-0.6-0.9-2.5-1.6-5.3c-0.6-2.8-1.6-3.6-3.7-3.6h-1.6v9h-5.1V8z"/>
		<path class="st10" d="M209.1,19.2c0,4.5,2.1,7.6,5.5,7.6c3.5,0,5.5-3.3,5.5-7.7c0-4.1-2-7.6-5.5-7.6
			C211.2,11.4,209.1,14.7,209.1,19.2 M225.6,18.9c0,7.5-4.5,12-11.2,12c-6.8,0-10.7-5.1-10.7-11.6c0-6.8,4.4-11.9,11.1-11.9
			C221.8,7.3,225.6,12.6,225.6,18.9"/>
		<path class="st10" d="M233.6,7.7v13.1c0,3.9,1.5,5.9,4.1,5.9c2.7,0,4.2-1.9,4.2-5.9V7.7h5.1v12.8c0,7-3.5,10.4-9.5,10.4
			c-5.7,0-9.1-3.2-9.1-10.4V7.7H233.6z"/>
		<path class="st10" d="M256.1,18.4c0.4,0.1,1,0.1,1.7,0.1c2.7,0,4.4-1.4,4.4-3.7c0-2.1-1.5-3.3-4-3.3c-1,0-1.8,0.1-2.1,0.2V18.4z
			 M251,8c1.6-0.3,3.8-0.5,7-0.5c3.2,0,5.4,0.6,7,1.8c1.5,1.1,2.4,3,2.4,5.3c0,2.2-0.7,4.1-2.1,5.4c-1.8,1.7-4.4,2.4-7.4,2.4
			c-0.7,0-1.3,0-1.8-0.1v8.1H251V8z"/>
		<path class="st10" d="M276.6,25.2c1.4,0.7,3.5,1.4,5.7,1.4c2.4,0,3.6-1,3.6-2.5c0-1.4-1.1-2.2-3.8-3.2c-3.8-1.3-6.2-3.4-6.2-6.7
			c0-3.9,3.2-6.9,8.6-6.9c2.6,0,4.5,0.5,5.8,1.1l-1.1,4.2c-0.9-0.4-2.5-1.1-4.8-1.1c-2.2,0-3.3,1-3.3,2.2c0,1.5,1.3,2.1,4.2,3.2
			c4,1.5,5.9,3.6,5.9,6.8c0,3.8-2.9,7.1-9.2,7.1c-2.6,0-5.2-0.7-6.5-1.4L276.6,25.2z"/>
		<path class="st10" d="M305.2,20.8l-1.4-4.8c-0.4-1.4-0.8-3-1.1-4.4h-0.1c-0.3,1.4-0.7,3.1-1,4.4l-1.4,4.8H305.2z M299.5,24.6
			l-1.6,5.8h-5.3l7-22.8h6.8l7.1,22.8h-5.5l-1.8-5.8H299.5z"/>
	</g>
</g>
<g id="flechas">
	<path class="st11" d="M155.5,20.7c0.1,13.3-10.3,17.5-10.3,17.5l2.5,1.8l-11.2-0.1c0,0,6.2-9.1,6.6-9.8c-0.6,3-0.1,4.2-0.1,4.2
		c10.8-6.4,8.7-15.5,8.8-15.8C150.6,5,137.2,2,137.2,2C138.9,1.5,154.6,3.9,155.5,20.7"/>
	<path class="st12" d="M123.7,0c1.9,0.8,2.4,1.5,2.4,1.5c-11.4,5.1-10.5,16.6-10.4,17.6C116.6,36.3,134,38,134,38
		c-15.9-5.3-14.4-19-14.4-19c0.8-6.8,3.1-11.8,8.7-14.3c0.7,0.5,0.2,5.9,0.2,5.9L135.1,0L123.7,0z"/>
</g>
<g id="flechas_copia">
	<g>
		<path class="st13" d="M125.6,15.3C125.6,15.3,125.7,15.3,125.6,15.3c0.1-0.2,0.2-0.4,0.2-0.7C125.7,14.8,125.6,15,125.6,15.3z"/>
		<path class="st13" d="M141.1,5.9c0.2,0.2,0.5,0.5,0.7,0.8C142,6.2,141.5,6.1,141.1,5.9z"/>
		<path class="st13" d="M141.9,6.8c0.1,0.2,0.3,0.3,0.4,0.5C142.3,7.1,142.1,6.9,141.9,6.8z"/>
		<path d="M132.9,6.8c0.2,0.1,0.1,0.4,0.4,0.4h0c0.6,0,0.2-0.7,0.1-0.9c-0.1-0.2-0.2-0.3-0.3-0.4l-0.5,0.9c0.1,0,0.1,0,0.2,0
			C132.7,6.7,132.8,6.7,132.9,6.8z"/>
		<path d="M136.4,36v-7.5h6.4l1-1.3h-7.4V27c0,0,0.1-0.1,0.2-0.1c0.5-0.3,0.3-0.7,0.4-1.2c0.1-0.8,0.5-1.7,1-2.3
			c0.6-0.8,0.9-1.5,0.1-2.3c-0.4-0.4-0.6-0.3-1.1-0.4c-0.2-0.1-0.4-0.2-0.6-0.3v-0.6h8.9c0,0,0,0,0,0c0,2.5-0.4,4.6-0.9,6.4l0.1-0.2
			l0,2.9c0.1-0.2,0.2-0.3,0.2-0.5h2.8c0,0,0,0.3,0.1,0.4c2.3-2.9,3.3-6.3,3-9.9c0-0.2,0-0.3,0-0.4c-0.3-3.2-1.4-6-3.1-8.4
			c0,0,0,0.1-0.1,0.1c-0.4-0.1-0.6-0.4-0.9-0.6c-0.2-0.1-0.5,0-0.6-0.1c-0.2-0.1-0.1-0.3-0.3-0.5C145.5,9,145.3,9,145.1,9
			c-0.4,0-0.9,0.2-1.3,0.4c-0.1-0.2-0.3-0.4-0.4-0.7c0.4-0.4,0.1-1.1,0.8-1.2c0,0,0.1,0,0.1,0c0.2,0,0.4,0.1,0.7,0.3
			c0.2,0.2,0.4,0.6,0.7,0.6c0,0,0,0,0,0c0-0.1,0-0.1,0-0.2c-0.7-0.7-1.5-1.3-2.3-1.9c-0.4-0.3-0.9-0.6-1.3-0.8c0,0,0,0.1,0,0.1
			c-0.1,0.1-0.2,0.2-0.2,0.2c-0.2,0-0.4-0.4-0.5-0.5c-0.1-0.1-0.4-0.3-0.5-0.3c-0.1,0-0.2,0.1-0.2,0.3c0,0,0,0,0,0
			c-0.7-0.6-1.4-1.1-2-1.5c-0.9-0.3-1.5-0.5-1.6-0.5l-2-0.4l-1,1.6c0.1-0.1,0.3-0.2,0.4-0.2c0,0,0.1,0.1,0.1,0.2
			c0.1,0.1-0.1,0.3,0.1,0.4c0,0,0,0,0.1,0c0.2,0,0.4-0.2,0.6-0.4v7.9h-6.1l-0.8,1.3h6.9v5H134c-0.1-0.4-0.2-0.5-0.4-0.6
			c-0.1-0.1-0.5-0.1-0.6-0.2c-0.2-0.1-0.4-0.2-0.6-0.3c-0.2-0.2-0.7-0.3-0.8-0.6c-0.3,0-0.5-0.1-0.8-0.1h0c-0.2,0-0.4,0-0.6,0
			c0,0-0.1,0-0.1,0c-0.2,0-0.5-0.2-0.7-0.2c0,0,0,0-0.1,0c-0.2,0-0.5,0.3-0.6,0.3c-0.4,0.2-0.9,0.4-1.3,0.5c-0.1,0-0.2,0-0.3,0
			c-0.4,0-0.5-0.2-0.5-0.6c0.1-0.9,0.3-1.7,0.5-2.5l0.3-3.7c0-0.2,0.1-1.3,0.1-2.4c0-0.6,0-1,0-1.4c-2,1.2-3.6,3-4.7,5.3
			c0.1-0.1,0.1-0.1,0.2-0.1c0,0.1,0.1,0.2,0.1,0.4h-0.4c-0.2,0.4-0.4,0.7-0.5,1.3h0.9c0,0,0,0,0,0.1c-0.1,0.7-0.2,0.8,0.2,1.4
			c0.3,0.5,0.4,0.7,1,0.8c0.6,0.1,0.8,0.3,1,0.9c0.1,0,0.2,0.1,0.2,0.1c-0.1,0.6-0.1,1-0.1,1.8H121c0,0.2-0.1,0.4-0.1,0.7l0,0
			c0,0,0,0.2,0,0.6h4.4c0,0,0,0,0,0.1c0,2.9,0.4,5.2,1.1,7.3h-3.9c0.2,0.4,0.4,0.7,0.7,1.3h3.7c1,2.4,2.3,4.1,3.5,5.3
			c1,1,2,1.8,2.9,2.3c-0.4-0.1-0.8-0.1-1.2-0.2c0.7,0.3,1.5,0.6,2.3,0.9l1.2,0.4l0,0c0,0,0.1,0,0.1,0c0.1,0,0.1,0,0.2,0l0,0.1
			c0,0,0.2-0.1,0.4-0.1c0.2,0,0.3,0,0.5,0c0.5-0.7,1-1.5,1.6-2.3C137.6,35.3,136.9,35.7,136.4,36z M146.2,17.8
			c0.3-0.1,0.4-0.3,0.6-0.3c0.1,0,0.1,0,0.2,0.1c0.2,0.1,0.5,0.4,0.7,0.4c0.1,0,0.2,0,0.3-0.1c0.2,0.2,0.1,0.4,0.1,0.8h-2
			C146.2,18.2,146.2,18.1,146.2,17.8C146.2,17.8,146.2,17.8,146.2,17.8z M146.3,19.9C146.3,19.9,146.3,19.8,146.3,19.9l1.9-0.1
			c0.1,0,0.2,0.3,0.3,0.4c0.3,0.5,0.4,0.5,0.3,1.1c-0.1,0.5-0.2,0.9-0.3,1.4c-0.1,0.5-0.4,0.8-0.4,1.3c0,0.4,0.2,0.8,0.1,1.3
			c-0.1,0.4-0.1,1-0.2,1.4c0,0.1-0.1,0.3-0.2,0.5h-2.8C145.8,25.1,146.3,22.8,146.3,19.9z M142.3,7.3c-0.1-0.2-0.3-0.3-0.4-0.5
			C142.1,6.9,142.3,7.1,142.3,7.3z M136.4,3.7c1.5,0.7,4.4,2.4,6.5,6.1c-0.1,0-0.1,0.1-0.1,0.1c-0.2,0.3,0.1,0.3,0,0.6
			c-0.1,0.4-0.5,0.6-0.7,0.9c-0.1,0.2-0.1,0.5-0.1,0.8h-5.7V3.7z M136.4,13.6h6c0,0,0,0.2,0,0.3c-0.1,0.4-0.5,0.9-0.3,1.2
			c0.1,0.2,0.3,0.3,0.4,0.5c0.1,0.2,0.1,0.4,0.3,0.5c0.4,0.6,1,1.2,1.4,1.7c0.2,0.2,0.5,0.3,0.7,0.3c0.1,0,0.2,0,0.3,0
			c0,0,0.1,0,0.1,0c0,0.1,0,0.2,0,0.4h-8.9V13.6z M126.7,17.8C126.8,17.8,126.8,17.8,126.7,17.8c0.3,0,0.5-0.1,0.8-0.1
			c0.1,0,0.2,0.1,0.3,0.2c0.1,0.2,0.1,0.3,0.1,0.7h-1.5c0-0.4,0-0.6,0.1-0.9C126.5,17.7,126.6,17.8,126.7,17.8z M126.5,11.5
			c0,0,0.1,0,0.1,0c0.1,0,0.1,0,0.2,0.1c-0.1,0.2-0.2,0.4-0.3,0.7h-1.3C125.6,11.9,126.2,11.6,126.5,11.5z M126,14.1
			c0-0.1,0-0.1-0.1-0.1h0c-0.4,0-0.9,0.9-1.3,0.9c-0.1,0-0.2,0-0.3-0.2c-0.2-0.2-0.1-0.8,0-1.2h1.8C126.1,13.6,126,13.9,126,14.1z
			 M126.3,19.9C126.3,19.9,126.3,19.8,126.3,19.9l1-0.1c-0.1,0-0.2,0.3-0.2,0.4c-0.3,0.7-0.3,1.7,0.3,2.2c0.3,0.3,0.7,0.4,0.8,0.8
			c0.1,0.4,0,0.8,0.2,1.2c0.3,0.6,1,0.9,1.5,1.4c0.4,0.4,0.5,0.8,0.6,1.4h-3C126.7,25.1,126.3,22.8,126.3,19.9z M127.9,28.4h2.5
			c0.1,0.7,0.4,1.4,0.5,2.2c0.1,0.9,0.4,1.7,0.6,2.5c0,0.1,0.1,0.2,0.1,0.4C130.3,32.4,129,30.7,127.9,28.4z M135.3,35.9
			c-0.6-0.3-1.4-0.7-2.2-1.3c0-0.3-0.3-0.5-0.3-0.8c0-0.3,0-0.6,0-0.9c-0.1-0.6-0.1-0.9,0.3-1.4c0.1-0.2,0.3-0.3,0.5-0.5
			c0.3-0.3,0.1-0.2,0.1-0.6c0-0.5,0.1-0.2,0.4-0.4c0.1-0.1,0.3-0.3,0.4-0.4c0.2-0.3,0.6-0.6,0.8-0.9c0-0.1,0.1-0.1,0.1-0.2V35.9z
			 M135.3,20.2c-0.2-0.1-0.2,0-0.4,0h0c-0.2,0-0.6,0.3-0.8,0.3c-0.1,0-0.2,0-0.2-0.1c-0.1-0.1,0-0.4,0.1-0.6h1.3V20.2z"/>
		<path d="M132.1,7.4l-0.3,0.5c0.1,0,0.1-0.1,0.2-0.1C132.4,7.7,132.3,7.6,132.1,7.4z"/>
	</g>
</g>
</svg>
